<?xml version="1.0" encoding="UTF-8"?> <svg xmlns="http://www.w3.org/2000/svg" xmlns:xlink="http://www.w3.org/1999/xlink" xmlns:svgjs="http://svgjs.com/svgjs" width="32" height="32"> <svg xmlns="http://www.w3.org/2000/svg" width="32" height="32" viewBox="0 0 32 32" fill="none"> <g clip-path="url(#clip0_45_6)"> <path fill-rule="evenodd" clip-rule="evenodd" d="M15.9576 0.0042304C16.2529 0.00722176 16.5541 0.0132044 16.6294 0.0161958C16.7077 0.0191872 16.524 0.0550835 16.1926 0.105936C15.8763 0.150807 15.3882 0.231573 15.1081 0.282426C14.8249 0.336269 14.2977 0.443958 13.9332 0.527715C13.5686 0.611475 12.9722 0.764032 12.6076 0.86873C12.2431 0.973427 11.7129 1.13496 11.4327 1.22769C11.1495 1.32341 10.6886 1.48794 10.4084 1.59264C10.1253 1.70033 9.6583 1.88878 9.36912 2.01143C9.0799 2.13407 8.48944 2.40629 8.05866 2.61867C7.62784 2.83106 7.01629 3.15113 6.70298 3.33062C6.38666 3.51008 5.91971 3.78829 5.66365 3.94682C5.40758 4.10538 5.1937 4.23101 5.18765 4.22803C5.18464 4.22205 5.32624 4.0904 5.50397 3.93488C5.68474 3.77632 5.93178 3.56694 6.05526 3.46822C6.17878 3.3665 6.43789 3.17207 6.62768 3.03148C6.81747 2.89088 7.14883 2.66055 7.36576 2.52295C7.57965 2.38236 7.90499 2.18193 8.08877 2.08023C8.26954 1.97553 8.64307 1.7781 8.91722 1.64349C9.19136 1.50888 9.6312 1.30846 9.89632 1.19778C10.1614 1.09009 10.6434 0.910611 10.9658 0.805914C11.2881 0.698224 11.5743 0.602499 11.5984 0.593526C11.6225 0.584554 11.6556 0.572586 11.6737 0.572586C11.6888 0.569597 11.7521 0.557629 11.8093 0.542672C11.8665 0.527715 11.9268 0.50977 11.9449 0.500794C11.9599 0.491821 12.0141 0.476864 12.0654 0.473872C12.1136 0.467891 12.1678 0.449942 12.1859 0.434986C12.2009 0.417037 12.225 0.411053 12.2371 0.420029C12.2522 0.429002 12.2793 0.42601 12.2973 0.414045C12.3184 0.40208 12.3756 0.390115 12.4269 0.384131C12.4751 0.37815 12.5383 0.366182 12.5624 0.35721C12.5865 0.345245 12.6408 0.33328 12.6829 0.327296C12.7251 0.321312 12.7914 0.309348 12.8336 0.297383C12.8757 0.285417 12.93 0.273452 12.9541 0.267469C12.9782 0.264478 13.0535 0.252513 13.1198 0.240547C13.186 0.231573 13.3608 0.204651 13.5114 0.18072C13.659 0.156789 13.9663 0.117902 14.1892 0.0909795C14.4122 0.0670486 14.7797 0.0371354 15.0026 0.0281612C15.2256 0.0161958 15.4124 0.0042304 15.4154 0.00123906C15.4214 -0.00175229 15.6654 0.00123906 15.9576 0.0042304ZM22.3382 2.78619C22.7178 2.79516 23.242 2.82208 23.4981 2.84601C23.7542 2.86995 24.1609 2.92379 24.4019 2.96567C24.6429 3.00455 24.9984 3.07934 25.1912 3.1272C25.387 3.17805 25.6129 3.24986 25.6973 3.29171C25.7786 3.3336 26.0076 3.49811 26.2004 3.65965C26.3962 3.82419 26.7185 4.10538 26.9174 4.29085C27.1162 4.47331 27.4325 4.78739 27.6223 4.99082C27.8091 5.19123 28.0652 5.47242 28.1857 5.616C28.3092 5.76259 28.4026 5.88822 28.3935 5.90019C28.3845 5.91514 28.2068 5.85232 27.9959 5.76259C27.782 5.67283 27.4958 5.56218 27.3542 5.5143C27.2126 5.46643 26.9686 5.39763 26.8119 5.35574C26.6553 5.31686 26.3841 5.25706 26.2094 5.22413C26.0347 5.19123 25.6491 5.1344 25.3508 5.1015C24.9532 5.05363 24.5555 5.0327 23.8596 5.02074C23.2782 5.01174 22.6877 5.01773 22.3382 5.03869C22.0219 5.05962 21.5068 5.1015 21.1935 5.1344C20.8772 5.1673 20.3891 5.22714 20.109 5.26899C19.8258 5.3079 19.3648 5.38269 19.0847 5.43354C18.8015 5.48438 18.3014 5.5831 17.97 5.65488C17.6386 5.72669 17.0903 5.85533 16.7499 5.93907C16.4095 6.02282 15.8341 6.17837 15.4696 6.28307C15.1051 6.38778 14.4875 6.57622 14.0988 6.70186C13.7102 6.8305 13.1047 7.0369 12.7583 7.16554C12.4088 7.29414 11.8816 7.49456 11.5834 7.61424C11.2851 7.73389 10.7368 7.9672 10.3633 8.13174C9.9897 8.29325 9.34502 8.59539 8.93229 8.79581C8.51654 8.99923 7.91405 9.31034 7.59168 9.48682C7.26934 9.66032 6.76624 9.94749 6.47702 10.118C6.18784 10.2915 5.69075 10.6026 5.37744 10.809C5.06112 11.0184 4.56106 11.3684 4.26278 11.5927C3.96454 11.8141 3.51568 12.1641 3.26864 12.3705C3.0186 12.5769 2.57575 12.9807 2.27751 13.2679C1.98228 13.555 1.60872 13.9469 1.44905 14.1354C1.28938 14.3238 1.0785 14.5871 0.979088 14.7187C0.882685 14.8503 0.726032 15.0806 0.629629 15.2272C0.53624 15.3768 0.400672 15.6161 0.325357 15.7657C0.250044 15.9152 0.162679 16.1126 0.126528 16.2054C0.0903773 16.3011 0.0451888 16.3789 0.0301258 16.3789C0.0120503 16.3789 0 16.2084 0 15.9212C0 15.6729 0.0150629 15.2631 0.0301258 15.0178C0.0482013 14.7695 0.0813395 14.3807 0.108453 14.1503C0.132553 13.92 0.18678 13.5371 0.228956 13.2978C0.268119 13.0585 0.322346 12.7923 0.346445 12.7055C0.373558 12.6128 0.485024 12.4124 0.63264 12.197C0.762182 12.0055 0.991136 11.7004 1.13574 11.518C1.28035 11.3355 1.60269 10.9825 1.85273 10.7282C2.09977 10.474 2.49441 10.106 2.7294 9.9056C2.96136 9.70816 3.34698 9.39408 3.58797 9.21162C3.82598 9.02912 4.25075 8.71805 4.53392 8.52358C4.81411 8.32618 5.28406 8.02106 5.57328 7.84157C5.86246 7.6591 6.35654 7.36595 6.67286 7.18944C6.98618 7.00998 7.57664 6.69888 7.98333 6.49546C8.39002 6.29206 8.95037 6.01984 9.23354 5.89421C9.51373 5.76858 10.0439 5.53824 10.4084 5.38566C10.773 5.23312 11.3634 4.99978 11.7189 4.86816C12.0744 4.73654 12.6498 4.53312 12.9993 4.41648C13.3457 4.30282 13.888 4.13229 14.2043 4.03955C14.5176 3.94682 15.0599 3.80026 15.4093 3.71053C15.7558 3.62077 16.3191 3.48915 16.6596 3.41437C17 3.33958 17.5483 3.2319 17.8796 3.17207C18.211 3.11524 18.7262 3.03447 19.0244 2.99259C19.3227 2.9537 19.7896 2.89986 20.0637 2.87293C20.3379 2.84601 20.8049 2.81311 21.1031 2.79815C21.4013 2.78619 21.9556 2.7802 22.3382 2.78619ZM25.6069 11.0902C25.7304 11.0872 26.11 11.0991 26.4504 11.1141C26.7908 11.1321 27.2518 11.165 27.4747 11.1919C27.6976 11.2158 28.0652 11.2697 28.2881 11.3115C28.511 11.3534 28.8424 11.4252 29.0262 11.4731C29.2069 11.5209 29.4931 11.6077 29.6588 11.6675C29.8245 11.7273 30.0896 11.835 30.2463 11.9098C30.4029 11.9846 30.6469 12.1222 30.7885 12.2149C30.9301 12.3076 31.1651 12.4991 31.3157 12.6427C31.4634 12.7863 31.623 12.9538 31.6712 13.0166C31.7435 13.1183 31.7646 13.1991 31.8249 13.6268C31.867 13.899 31.9152 14.276 31.9333 14.4644C31.9514 14.6529 31.9785 15.2063 31.9906 15.6909C32.0026 16.1755 32.0026 16.6062 31.9936 16.6481C31.9755 16.7139 31.9604 16.696 31.867 16.4985C31.8068 16.3759 31.6893 16.1874 31.6079 16.0797C31.5266 15.9721 31.373 15.8045 31.2675 15.7088C31.1621 15.6101 30.9723 15.4635 30.8488 15.3828C30.7253 15.299 30.4873 15.1644 30.3216 15.0836C30.1559 14.9999 29.8426 14.8772 29.6287 14.8054C29.4118 14.7366 29.0804 14.6439 28.8906 14.602C28.7008 14.5601 28.3664 14.5003 28.1525 14.4674C27.9356 14.4345 27.5771 14.3926 27.3542 14.3717C27.1313 14.3508 26.5528 14.3358 26.0739 14.3358C25.5918 14.3358 24.9833 14.3537 24.7182 14.3717C24.4531 14.3926 23.9922 14.4345 23.6939 14.4674C23.3957 14.5003 22.9287 14.5601 22.6546 14.602C22.3804 14.6439 21.9526 14.7157 21.7056 14.7636C21.4556 14.8084 20.9766 14.9101 20.6362 14.9849C20.2957 15.0597 19.6721 15.2153 19.2504 15.3289C18.8286 15.4426 18.1779 15.631 17.8043 15.7477C17.4308 15.8614 16.8343 16.0588 16.4788 16.1844C16.1233 16.3101 15.5389 16.5284 15.1834 16.6691C14.8279 16.8096 14.2435 17.0519 13.888 17.2075C13.5325 17.366 12.9059 17.6592 12.4932 17.8626C12.0835 18.066 11.5502 18.3442 11.3032 18.4758C11.0592 18.6104 10.6977 18.8139 10.4988 18.9305C10.3 19.0472 9.9144 19.2835 9.64026 19.457C9.36611 19.6275 8.95939 19.8967 8.73648 20.0523C8.51354 20.2108 8.22131 20.4202 8.08877 20.5189C7.95622 20.6176 7.6911 20.83 7.4983 20.9856C7.3055 21.1411 6.95603 21.4432 6.71805 21.6586C6.48006 21.871 6.13059 22.215 5.9408 22.4214C5.75101 22.6278 5.50096 22.915 5.38349 23.0645C5.26899 23.2141 5.08221 23.4684 4.97376 23.6329C4.8623 23.7974 4.69661 24.0816 4.60323 24.2611C4.50982 24.4406 4.39235 24.7098 4.34112 24.8594C4.29293 25.0089 4.22966 25.2213 4.20557 25.338C4.18144 25.4516 4.15133 25.6401 4.1423 25.7568C4.13024 25.8794 4.13626 26.0798 4.15734 26.2354C4.17542 26.385 4.22362 26.5973 4.25978 26.714C4.29594 26.8277 4.32304 26.9413 4.31702 26.9593C4.31101 26.9892 4.29894 26.9892 4.26278 26.9593C4.23568 26.9413 4.21459 26.9144 4.2176 26.8995C4.2176 26.8875 4.05795 26.6931 3.86512 26.4657C3.67232 26.2414 3.39216 25.8944 3.24154 25.6969C3.09392 25.4995 2.8258 25.1166 2.64504 24.8444C2.46429 24.5722 2.28052 24.2761 2.23533 24.1863C2.15701 24.0308 2.15399 24.0008 2.15399 23.588C2.157 23.2859 2.17207 23.0765 2.21123 22.9C2.24136 22.7594 2.30763 22.5321 2.35583 22.3915C2.40705 22.2509 2.53659 21.9607 2.64504 21.7484C2.75651 21.533 2.95232 21.198 3.08789 21.0005C3.22045 20.8031 3.44336 20.501 3.58496 20.3275C3.72355 20.154 4.03082 19.8189 4.26278 19.5826C4.49475 19.3463 4.8593 18.9963 5.07619 18.8049C5.29008 18.6134 5.60941 18.3412 5.78416 18.2006C5.95888 18.06 6.32339 17.7788 6.59754 17.5754C6.87168 17.375 7.32358 17.0579 7.60675 16.8724C7.88691 16.687 8.3569 16.3939 8.64608 16.2233C8.9353 16.0498 9.39622 15.7836 9.67037 15.634C9.94451 15.4815 10.6133 15.1375 11.1616 14.8683C11.7069 14.599 12.3937 14.276 12.6829 14.1503C12.9722 14.0217 13.4542 13.8213 13.7524 13.7016C14.0507 13.579 14.5116 13.4025 14.7767 13.3038C15.0418 13.2051 15.5238 13.0346 15.8461 12.9239C16.1685 12.8162 16.7168 12.6397 17.0662 12.535C17.4127 12.4303 17.9821 12.2688 18.3315 12.176C18.678 12.0833 19.1931 11.9547 19.4763 11.8889C19.7565 11.8231 20.1782 11.7273 20.4102 11.6795C20.6422 11.6316 21.1423 11.5359 21.5249 11.4731C21.9044 11.4073 22.4949 11.3205 22.8353 11.2816C23.1757 11.2397 23.6367 11.1919 23.8596 11.1709C24.0825 11.153 24.5164 11.1291 24.8236 11.1171C25.1309 11.1021 25.4834 11.0902 25.6069 11.0902ZM24.197 25.326C24.4109 25.326 24.7152 25.338 24.8748 25.3529C25.0375 25.3709 25.3117 25.4188 25.4864 25.4606C25.6702 25.5025 25.9172 25.5892 26.0739 25.664C26.2305 25.7388 26.4143 25.8585 26.5107 25.9422C26.6011 26.026 26.7155 26.1636 26.7668 26.2533C26.842 26.3909 26.8571 26.4567 26.8661 26.6841C26.8752 26.8815 26.8661 27.0012 26.827 27.1328C26.7999 27.2315 26.7306 27.399 26.6764 27.5067C26.6221 27.6144 26.5076 27.7939 26.4263 27.9105C26.345 28.0272 26.1732 28.2336 26.0467 28.3742C25.9202 28.5148 25.8148 28.6554 25.8087 28.6883C25.8057 28.7212 25.7033 28.8229 25.5768 28.9216C25.4532 29.0173 25.1188 29.2477 24.8387 29.4361C24.5555 29.6216 24.1759 29.8609 23.9952 29.9626C23.8114 30.0673 23.4589 30.2468 23.2119 30.3664C22.9619 30.4831 22.6034 30.6476 22.4136 30.7314C22.2238 30.8122 21.8261 30.9677 21.5309 31.0784C21.2387 31.1861 20.7988 31.3356 20.5518 31.4074C20.3078 31.4792 19.8709 31.5929 19.5818 31.6587C19.2925 31.7245 18.8497 31.8142 18.6027 31.8561C18.3526 31.895 18.0273 31.9459 17.8796 31.9638C17.729 31.9818 17.5001 31.9967 17.3675 31.9997C17.2349 32.0026 16.9156 31.9818 16.6596 31.9548C16.4035 31.9279 16.0962 31.889 15.9817 31.8711C15.8642 31.8532 15.6835 31.8113 15.575 31.7784C15.4666 31.7454 15.2557 31.6557 15.1081 31.5809C14.9394 31.4942 14.7797 31.3835 14.6863 31.2908C14.602 31.21 14.4995 31.0724 14.4604 30.9916C14.4092 30.8839 14.3851 30.7763 14.376 30.6028C14.367 30.4412 14.379 30.3006 14.4152 30.169C14.4423 30.0613 14.5176 29.8729 14.5839 29.7502C14.6471 29.6276 14.7707 29.4332 14.858 29.3165C14.9424 29.1998 15.1713 28.9515 15.3611 28.7631C15.5539 28.5746 15.8461 28.3174 16.0118 28.1917C16.1775 28.0661 16.4758 27.8567 16.6746 27.7251C16.8734 27.5935 17.1837 27.399 17.3675 27.2973C17.5483 27.1926 17.9429 26.9892 18.2412 26.8456C18.5394 26.7021 18.9943 26.5016 19.2504 26.3999C19.5064 26.2982 19.9553 26.1337 20.2445 26.038C20.5337 25.9422 20.9826 25.8106 21.2387 25.7448C21.4947 25.679 21.8804 25.5923 22.0972 25.5504C22.3111 25.5115 22.6455 25.4547 22.8353 25.4277C23.0251 25.4008 23.3234 25.3709 23.4981 25.3559C23.6728 25.341 23.9861 25.329 24.197 25.326ZM25.7425 20.9407C26.3902 20.9467 26.7728 20.9646 26.9927 20.9975C27.1674 21.0244 27.4175 21.0663 27.55 21.0932C27.6826 21.1202 27.9386 21.189 28.1224 21.2458C28.3032 21.3056 28.5412 21.3924 28.6496 21.4403C28.758 21.4881 28.9539 21.5988 29.0864 21.6855C29.219 21.7753 29.4088 21.9308 29.5082 22.0385C29.6136 22.1522 29.7341 22.3257 29.8004 22.4543C29.8606 22.577 29.9239 22.7475 29.942 22.8312C29.9601 22.918 29.9751 23.1154 29.9751 23.265C29.9751 23.4175 29.9541 23.6239 29.933 23.7227C29.9089 23.8214 29.8817 23.965 29.8727 24.0427C29.8637 24.1235 29.8365 24.2222 29.8124 24.2671C29.7914 24.3149 29.71 24.4256 29.6377 24.5154C29.5624 24.6051 29.3907 24.8474 29.2521 25.0538C29.1135 25.2602 28.8906 25.5683 28.7581 25.7418C28.6285 25.9153 28.3935 26.2055 28.2399 26.385C28.0862 26.5644 27.8814 26.8008 27.785 26.9054C27.6886 27.0101 27.5922 27.0909 27.5711 27.0849C27.547 27.076 27.5711 27.0191 27.6464 26.9084C27.7067 26.8187 27.8091 26.6362 27.8724 26.5046C27.9356 26.373 28.014 26.1576 28.0471 26.026C28.0802 25.8944 28.1073 25.7239 28.1073 25.6431C28.1073 25.5653 28.0923 25.4307 28.0742 25.344C28.0561 25.2602 28.0079 25.1286 27.9718 25.0538C27.9326 24.979 27.8603 24.8653 27.8061 24.7996C27.7549 24.7337 27.6404 24.623 27.556 24.5513C27.4687 24.4825 27.297 24.3718 27.1734 24.309C27.0499 24.2461 26.839 24.1594 26.7065 24.1175C26.5739 24.0756 26.3148 24.0128 26.1341 23.9799C25.9503 23.947 25.6521 23.9051 25.4713 23.8872C25.2876 23.8722 24.9773 23.8572 24.7784 23.8572C24.5796 23.8572 24.185 23.8782 23.9048 23.9021C23.6216 23.926 23.2028 23.9739 22.9709 24.0068C22.7389 24.0427 22.3443 24.1085 22.0972 24.1594C21.8472 24.2072 21.4827 24.291 21.2838 24.3389C21.085 24.3897 20.7054 24.4944 20.4403 24.5752C20.1752 24.656 19.7896 24.7786 19.5818 24.8534C19.3739 24.9252 19.0093 25.0628 18.7684 25.1585C18.5273 25.2542 18.0815 25.4457 17.7742 25.5833C17.4669 25.7209 17 25.9482 16.7348 26.0918C16.4698 26.2324 16.0842 26.4508 15.8763 26.5794C15.6684 26.708 15.343 26.9234 15.1532 27.058C14.9635 27.1926 14.6652 27.42 14.4905 27.5605C14.3158 27.7012 14.0055 27.9853 13.7976 28.1947C13.5897 28.4011 13.3307 28.6973 13.2192 28.8528C13.1077 29.0084 12.9631 29.2447 12.8968 29.3763C12.8306 29.5079 12.7492 29.7233 12.7131 29.8549C12.6799 29.9865 12.6528 30.181 12.6528 30.2887C12.6528 30.3964 12.6769 30.5699 12.71 30.6775C12.7432 30.7852 12.8155 30.9378 12.8697 31.0186C12.9239 31.0993 13.0505 31.2399 13.1499 31.3267C13.2553 31.4194 13.4451 31.5421 13.6018 31.6198C13.7494 31.6916 14.0025 31.7873 14.1591 31.8322C14.3158 31.8741 14.4784 31.9249 14.5206 31.9399C14.5628 31.9578 14.5809 31.9788 14.5658 31.9848C14.5477 31.9908 14.3459 31.9758 14.1139 31.9489C13.882 31.922 13.5686 31.8741 13.421 31.8412C13.2704 31.8083 13.1228 31.7754 13.0896 31.7694C13.0565 31.7634 12.8878 31.7245 12.7131 31.6826C12.5383 31.6407 12.3485 31.6019 12.2913 31.5929C12.2341 31.5839 12.1377 31.569 12.0804 31.56C12.0232 31.548 11.8334 31.5061 11.6587 31.4673C11.4839 31.4254 11.2098 31.3536 11.0471 31.3057C10.791 31.2279 10.7308 31.195 10.5651 31.0515C10.4627 30.9587 10.2849 30.8002 10.1705 30.6985C10.056 30.5968 9.90835 30.4323 9.84509 30.3335C9.78182 30.2348 9.69747 30.0673 9.66134 29.9596C9.6071 29.8011 9.59504 29.6994 9.59504 29.4062C9.59808 29.1549 9.61312 28.9844 9.65229 28.8379C9.68243 28.7212 9.75773 28.5148 9.81798 28.3742C9.87824 28.2336 9.99571 28.0123 10.0771 27.8806C10.1584 27.749 10.3271 27.5067 10.4536 27.3422C10.5772 27.1777 10.8362 26.8845 11.026 26.6871C11.2158 26.4926 11.5201 26.2055 11.7039 26.0499C11.8846 25.8914 12.219 25.6281 12.442 25.4606C12.6649 25.2931 12.9571 25.0807 13.0896 24.991C13.2222 24.8982 13.4873 24.7247 13.6771 24.6051C13.8669 24.4854 14.2465 24.2611 14.5206 24.1055C14.7948 23.95 15.3159 23.6778 15.6804 23.4983C16.045 23.3218 16.518 23.0975 16.7348 23.0047C16.9488 22.912 17.3976 22.7265 17.729 22.5949C18.0604 22.4633 18.6689 22.2449 19.0847 22.1073C19.4974 21.9697 20.115 21.7812 20.4554 21.6885C20.7958 21.5988 21.3441 21.4642 21.6755 21.3894C22.0069 21.3176 22.522 21.2189 22.8203 21.168C23.1185 21.1202 23.5463 21.0573 23.7692 21.0304C23.9922 21.0065 24.3175 20.9706 24.4923 20.9587C24.667 20.9437 25.2273 20.9347 25.7425 20.9407ZM19.7625 0.455923C19.8529 0.461907 19.9493 0.47088 19.9734 0.476864C19.9975 0.479856 20.0306 0.488829 20.0487 0.500794C20.0637 0.50977 20.127 0.527715 20.1843 0.542672C20.2415 0.557629 20.3018 0.569597 20.3198 0.572586C20.3349 0.572586 20.3861 0.590534 20.4313 0.608483C20.4795 0.629424 20.5277 0.638397 20.5458 0.629424C20.5608 0.620448 20.5819 0.626432 20.5909 0.644381C20.6 0.659338 20.6783 0.689251 20.7627 0.710189C20.85 0.728138 20.9223 0.73711 20.9253 0.73113C20.9253 0.725146 20.9525 0.740102 20.9796 0.764032C21.0067 0.787965 21.0278 0.793946 21.0278 0.778989C21.0278 0.761043 21.0459 0.770016 21.073 0.793946C21.1001 0.817878 21.1181 0.823859 21.1181 0.808902C21.1151 0.790957 21.1302 0.793946 21.1543 0.811894C21.1754 0.829843 21.2688 0.871722 21.3592 0.901635C21.4495 0.931549 21.5309 0.95847 21.5399 0.95847C21.549 0.961462 21.5941 0.979411 21.6453 1.00035C21.6936 1.02129 21.7478 1.04223 21.7659 1.04522C21.7809 1.04821 21.8291 1.06915 21.8713 1.09308C21.9135 1.11402 21.9496 1.13197 21.9526 1.12898C21.9587 1.12599 22.025 1.15291 22.1033 1.18881C22.1846 1.2247 22.266 1.25461 22.284 1.25461C22.3051 1.25761 22.3232 1.26359 22.3232 1.27256C22.3232 1.28154 22.3744 1.30547 22.4347 1.3294C22.4979 1.35333 22.5552 1.36828 22.5642 1.3653C22.5732 1.35931 22.5853 1.36828 22.5943 1.38324C22.6034 1.39521 22.8594 1.53281 23.1667 1.68238C23.474 1.83494 23.7511 1.98151 23.7843 2.00844C23.8415 2.05331 23.8385 2.05331 23.724 2.03835C23.6578 2.02938 23.3716 1.98749 23.0914 1.94562C22.8082 1.90673 22.3563 1.85887 22.0822 1.83793C21.7689 1.81699 21.2838 1.80802 20.7717 1.81998C20.3228 1.82895 19.7263 1.85887 19.4462 1.88579C19.163 1.90972 18.7172 1.95758 18.452 1.99348C18.1869 2.02638 17.6929 2.10117 17.3524 2.158C17.012 2.21484 16.4306 2.32851 16.057 2.40928C15.6835 2.49303 15.102 2.63064 14.7616 2.72038C14.4212 2.81012 13.8518 2.97165 13.4964 3.07934C13.1409 3.18703 12.6107 3.35453 12.3214 3.45027C12.0322 3.54899 11.5502 3.71949 11.252 3.83018C10.9537 3.94384 10.4717 4.12931 10.1825 4.24896C9.89331 4.36861 9.4384 4.56304 9.17328 4.68269C8.90819 4.80237 8.3328 5.07757 7.89296 5.29891C7.45312 5.51728 6.83552 5.84336 6.52224 6.02282C6.20592 6.19933 5.72691 6.4865 5.45277 6.65402C5.17862 6.82451 4.7448 7.1087 4.48874 7.28816C4.23267 7.46765 3.87117 7.7279 3.6904 7.86848C3.50662 8.00909 3.16923 8.28429 2.93726 8.47872C2.70529 8.67616 2.29257 9.06205 2.01843 9.34022C1.74428 9.61546 1.4129 9.9744 1.28637 10.1329C1.15984 10.2945 1.03934 10.4261 1.02428 10.4261C1.0062 10.4261 1.0303 10.3364 1.07248 10.2227C1.11465 10.112 1.23214 9.83379 1.33156 9.60349C1.43097 9.37315 1.63583 8.9424 1.78947 8.64624C1.94311 8.35011 2.16303 7.95226 2.28052 7.76381C2.395 7.57533 2.59985 7.25824 2.73241 7.06083C2.86797 6.86339 3.04873 6.63306 3.13609 6.54931C3.22646 6.46554 3.46144 6.26214 3.66029 6.10061C3.8591 5.93606 4.19952 5.67584 4.41344 5.51728C4.63034 5.35875 5.04304 5.07456 5.33226 4.88611C5.62147 4.69466 6.05526 4.42544 6.29629 4.28784C6.53728 4.14726 6.97712 3.90496 7.27536 3.74941C7.57363 3.59386 8.0737 3.34557 8.39002 3.196C8.70333 3.04644 9.11907 2.85798 9.30886 2.77422C9.49866 2.69046 9.94752 2.50799 10.303 2.3674C10.6585 2.2298 11.2761 2.00544 11.6737 1.87083C12.0714 1.73921 12.701 1.54179 13.0746 1.43709C13.4481 1.3294 13.9814 1.18881 14.2645 1.123C14.5447 1.0542 15.0749 0.940522 15.4395 0.86873C15.804 0.796938 16.3402 0.704208 16.6294 0.662326C16.9186 0.620448 17.3946 0.566605 17.6838 0.539683C17.973 0.50977 18.5213 0.476864 18.9039 0.464899C19.2835 0.452934 19.6721 0.44695 19.7625 0.455923ZM24.1759 6.42368C24.5073 6.42067 25.0014 6.43264 25.2755 6.44758C25.5497 6.46554 25.9473 6.49846 26.1642 6.52538C26.3781 6.54931 26.7577 6.60912 27.0077 6.66C27.2548 6.70784 27.6073 6.78861 27.791 6.83946C27.9718 6.8903 28.2519 6.97706 28.4086 7.0369C28.5652 7.09674 28.8304 7.2104 28.996 7.29414C29.1617 7.37491 29.3636 7.4856 29.4479 7.53645C29.5293 7.5903 29.6377 7.67107 29.6829 7.72192C29.7281 7.76979 29.8456 7.94925 29.942 8.12275C30.0384 8.29626 30.2131 8.62531 30.3306 8.85565C30.4451 9.08598 30.6168 9.4569 30.7132 9.67827C30.8096 9.89962 30.9663 10.3004 31.0627 10.5667C31.1621 10.8359 31.2404 11.0752 31.2404 11.0991C31.2404 11.1261 31.129 11.0483 30.9753 10.9167C30.8307 10.791 30.6108 10.6235 30.4873 10.5428C30.3637 10.459 30.1258 10.3274 29.9601 10.2466C29.7944 10.1659 29.4961 10.0462 29.2973 9.97741C29.0985 9.90861 28.7791 9.81587 28.5893 9.768C28.3996 9.72013 28.0862 9.65434 27.8964 9.62141C27.7067 9.58554 27.3813 9.54067 27.1734 9.51373C26.9656 9.48979 26.5649 9.4569 26.2847 9.43894C26.0015 9.424 25.5497 9.40902 25.2755 9.40902C25.0014 9.40902 24.5284 9.424 24.2211 9.43894C23.9138 9.4569 23.4529 9.48979 23.1968 9.51373C22.9408 9.54067 22.513 9.58554 22.2479 9.62141C21.9828 9.65434 21.5219 9.72013 21.2236 9.77098C20.9253 9.82186 20.3831 9.92054 20.0186 9.99533C19.654 10.0701 19.0576 10.2018 18.693 10.2915C18.3285 10.3782 17.8254 10.5068 17.5784 10.5756C17.3284 10.6415 16.8403 10.7851 16.4939 10.8898C16.1444 10.9945 15.6172 11.165 15.3189 11.2637C15.0207 11.3654 14.4845 11.5568 14.129 11.6884C13.7735 11.8201 13.1951 12.0474 12.8486 12.191C12.4992 12.3346 11.984 12.5559 11.7039 12.6846C11.4207 12.8102 10.8513 13.0794 10.4386 13.2828C10.0228 13.4862 9.42032 13.7973 9.09798 13.9708C8.77565 14.1473 8.30566 14.4136 8.05866 14.5631C7.80861 14.7097 7.41696 14.952 7.18499 15.1016C6.95302 15.2511 6.57946 15.4994 6.35654 15.655C6.1336 15.8105 5.78112 16.0678 5.57328 16.2263C5.36541 16.3849 5.00086 16.675 4.75987 16.8755C4.51888 17.0729 4.1664 17.384 3.97661 17.5605C3.78682 17.7399 3.48253 18.0421 3.30179 18.2305C3.12103 18.422 2.85893 18.7181 2.72036 18.8916C2.57876 19.0651 2.35282 19.3732 2.21424 19.5796C2.07566 19.786 1.89491 20.0822 1.81357 20.2377C1.72922 20.3933 1.61173 20.6565 1.55148 20.8211C1.49123 20.9856 1.41591 21.2339 1.38579 21.3744C1.35566 21.515 1.31951 21.7603 1.30444 21.9219C1.29239 22.0804 1.26829 22.209 1.25624 22.206C1.24118 22.2001 1.18394 22.0834 1.1267 21.9428C1.06947 21.8022 0.933898 21.4313 0.828458 21.1202C0.723018 20.8061 0.569376 20.2826 0.488038 19.9535C0.406698 19.6245 0.307283 19.1728 0.195818 18.5416L0.331382 18.1408C0.403686 17.9194 0.548288 17.5724 0.650717 17.366C0.753146 17.1596 0.945949 16.8306 1.07549 16.6332C1.20804 16.4357 1.40085 16.1665 1.50629 16.0349C1.61173 15.9033 1.82863 15.646 1.9883 15.4665C2.15098 15.2841 2.47634 14.949 2.71433 14.7217C2.95232 14.4913 3.35901 14.1294 3.6151 13.917C3.87117 13.7046 4.29293 13.3726 4.54899 13.1811C4.80506 12.9897 5.34131 12.6188 5.73894 12.3555C6.13661 12.0893 6.69094 11.7393 6.97411 11.5718C7.25427 11.4043 7.70918 11.147 7.98333 10.9945C8.25747 10.8449 8.86 10.5338 9.32394 10.3064C9.78787 10.0791 10.4717 9.75904 10.8453 9.5945C11.2188 9.42998 11.8816 9.15478 12.3214 8.98128C12.7613 8.80778 13.424 8.55949 13.7976 8.42787C14.1712 8.29626 14.7586 8.10182 15.1081 7.99414C15.4545 7.88346 15.9847 7.7279 16.283 7.64413C16.5812 7.56038 17.1235 7.41978 17.488 7.33005C17.8525 7.2433 18.3737 7.12064 18.6478 7.06381C18.922 7.00698 19.3739 6.91725 19.6571 6.8664C19.9372 6.81552 20.4343 6.73478 20.7566 6.68691C21.079 6.63904 21.6363 6.57325 21.9918 6.53734C22.3473 6.50445 22.8504 6.46554 23.1065 6.45059C23.3625 6.43862 23.8445 6.42368 24.1759 6.42368ZM21.6303 27.9195C21.4736 27.9524 21.1935 28.0212 21.0127 28.0751C20.829 28.1289 20.5247 28.2306 20.3349 28.3054C20.1451 28.3802 19.7926 28.5387 19.5516 28.6614C19.3106 28.781 18.9852 28.9635 18.8286 29.0682C18.6719 29.1729 18.4249 29.3703 18.2773 29.5109C18.1297 29.6515 17.9489 29.8519 17.8796 29.9596C17.8073 30.0673 17.726 30.2139 17.6989 30.2887C17.6748 30.3635 17.6537 30.4741 17.6537 30.534C17.6537 30.5968 17.6718 30.6925 17.6959 30.7434C17.717 30.7972 17.7832 30.8839 17.8375 30.9378C17.8947 30.9916 18.0152 31.0664 18.1056 31.1083C18.214 31.1591 18.4068 31.204 18.6629 31.2429C18.9822 31.2878 19.1118 31.2938 19.3558 31.2728C19.5215 31.2579 19.7866 31.225 19.9433 31.201C20.0999 31.1741 20.3861 31.1143 20.5759 31.0664C20.7657 31.0186 21.079 30.9258 21.2688 30.86C21.4586 30.7972 21.7448 30.6865 21.9014 30.6177C22.0581 30.5489 22.3172 30.4263 22.4738 30.3425C22.6305 30.2588 22.8895 30.1062 23.0462 30.0045C23.2028 29.9028 23.4409 29.7173 23.5704 29.5977C23.6999 29.475 23.8656 29.3015 23.9349 29.2118C24.0042 29.122 24.0976 28.9785 24.1398 28.8977C24.182 28.8139 24.2241 28.6943 24.2362 28.6285C24.2512 28.5537 24.2422 28.461 24.2181 28.3772C24.194 28.3054 24.1277 28.1977 24.0705 28.1409C24.0132 28.0811 23.8957 28.0033 23.8144 27.9674C23.73 27.9285 23.5824 27.8776 23.483 27.8507C23.3776 27.8208 23.1426 27.7969 22.9107 27.7909C22.6787 27.7819 22.3955 27.7939 22.2178 27.8208C22.0521 27.8417 21.7869 27.8866 21.6303 27.9195ZM21.9466 28.9156C21.9617 28.9156 22.0611 28.9276 22.1635 28.9426C22.269 28.9605 22.4076 28.9994 22.4738 29.0323C22.5401 29.0652 22.6094 29.122 22.6275 29.1579C22.6455 29.1968 22.6546 29.2746 22.6455 29.3314C22.6335 29.3883 22.5732 29.5109 22.5039 29.6006C22.4377 29.6904 22.29 29.834 22.1786 29.9148C22.0671 29.9985 21.8532 30.1271 21.7056 30.2049C21.555 30.2797 21.3321 30.3784 21.2085 30.4203C21.085 30.4622 20.8862 30.516 20.7717 30.5399C20.6542 30.5639 20.4524 30.5968 20.3198 30.6147C20.1331 30.6357 20.0336 30.6327 19.874 30.5998C19.7625 30.5758 19.63 30.537 19.5818 30.513C19.5305 30.4891 19.4763 30.4412 19.4612 30.4083C19.4432 30.3754 19.4311 30.3066 19.4311 30.2588C19.4311 30.2079 19.4522 30.1271 19.4763 30.0793C19.5004 30.0284 19.5727 29.9327 19.633 29.8639C19.6962 29.7981 19.8137 29.6904 19.8981 29.6306C19.9794 29.5708 20.1361 29.469 20.2445 29.4092C20.353 29.3464 20.5488 29.2507 20.6813 29.1938C20.8139 29.14 21.0428 29.0682 21.1935 29.0323C21.3411 28.9964 21.567 28.9575 21.6906 28.9455C21.814 28.9306 21.9285 28.9186 21.9466 28.9156Z" fill="#222222"></path> <path d="M26.375 16.0677C26.7546 16.0737 27.2155 16.0946 27.3993 16.1096C27.58 16.1275 27.8782 16.1604 28.062 16.1873C28.2428 16.2113 28.55 16.2681 28.7398 16.31C28.9296 16.3519 29.249 16.4386 29.4478 16.5044C29.6466 16.5672 29.9298 16.6779 30.0804 16.7467C30.2281 16.8185 30.466 16.9501 30.6076 17.0429C30.7492 17.1326 30.93 17.2672 31.0113 17.339C31.0927 17.4108 31.2252 17.5574 31.3096 17.6651C31.3909 17.7728 31.5084 17.9672 31.5717 18.0988C31.6379 18.2304 31.7132 18.4189 31.7404 18.5176C31.7916 18.6941 31.7916 18.7031 31.7072 19.1308C31.662 19.3701 31.5837 19.7261 31.5355 19.9236C31.4843 20.121 31.3066 20.7432 31.3005 20.7671C31.2825 20.8479 30.9782 21.7154 30.9782 21.7333C30.9601 21.7752 30.8637 22.0175 30.8366 22.0773C30.8095 22.1013 30.7944 22.0414 30.7794 21.823C30.7673 21.6675 30.7372 21.4581 30.7131 21.3594C30.689 21.2607 30.6197 21.0842 30.5655 20.9705C30.5022 20.8419 30.3847 20.6744 30.2522 20.5368C30.1377 20.4141 29.9449 20.2436 29.8214 20.1599C29.6979 20.0731 29.49 19.9505 29.3574 19.8846C29.2249 19.8189 29.0019 19.7261 28.8603 19.6753C28.7187 19.6274 28.4537 19.5526 28.2729 19.5077C28.0891 19.4659 27.7638 19.403 27.5499 19.3701C27.333 19.3373 26.8871 19.2954 26.5557 19.2744C26.0858 19.2475 25.7966 19.2475 25.2452 19.2744C24.8566 19.2954 24.3475 19.3313 24.1155 19.3552C23.8836 19.3791 23.4558 19.433 23.1666 19.4749C22.8774 19.5197 22.3743 19.6065 22.0519 19.6693C21.7296 19.7321 21.2144 19.8458 20.9071 19.9236C20.5999 19.9983 20.0998 20.1329 19.7925 20.2227C19.4852 20.3124 18.9158 20.4919 18.5272 20.6235C18.1386 20.7521 17.5813 20.9496 17.2921 21.0603C17.0028 21.1709 16.5269 21.3624 16.2377 21.485C15.9484 21.6077 15.3309 21.8918 14.8669 22.1222C14.403 22.3495 13.8065 22.6606 13.5414 22.8132C13.2763 22.9628 12.8425 23.223 12.5774 23.3905C12.3122 23.558 11.9116 23.8243 11.6887 23.9798C11.4657 24.1383 11.1434 24.3777 10.9717 24.5093C10.803 24.6439 10.5047 24.8952 10.3089 25.0657C10.1161 25.2362 9.81484 25.5204 9.64012 25.7028C9.46537 25.8823 9.23039 26.1426 9.11894 26.2802C9.00444 26.4208 8.82972 26.6541 8.7303 26.8037C8.6309 26.9502 8.4863 27.1925 8.41097 27.3421C8.33868 27.4887 8.24227 27.704 8.2031 27.8207C8.16396 27.9344 8.11273 28.1198 8.08863 28.2305C8.06454 28.3442 8.04345 28.5655 8.04345 28.7241C8.04345 28.8886 8.06454 29.095 8.09164 29.1967C8.11574 29.2954 8.18505 29.4689 8.24227 29.5856C8.29951 29.6993 8.45315 29.9236 8.58572 30.0792C8.71526 30.2347 8.8207 30.3663 8.81769 30.3723C8.81465 30.3753 8.6279 30.2766 8.40495 30.151C8.18201 30.0253 7.89583 29.8608 7.77231 29.786C7.64879 29.7112 7.53132 29.6275 7.51023 29.6005C7.48915 29.5766 7.47107 29.5647 7.47107 29.5766C7.47107 29.5916 7.44092 29.5736 7.40175 29.5407C7.36563 29.5078 7.02217 29.2596 6.64259 28.9903C6.25999 28.7181 5.90451 28.4519 5.8503 28.3981C5.79606 28.3442 5.69663 28.1917 5.63337 28.06C5.5701 27.9284 5.49481 27.7399 5.4677 27.6412C5.44358 27.5425 5.41347 27.3271 5.40444 27.1626C5.38937 26.9472 5.39839 26.7827 5.43455 26.5793C5.46166 26.4237 5.52793 26.1725 5.57615 26.0259C5.62735 25.8763 5.7358 25.6221 5.81714 25.4575C5.9015 25.293 6.06719 25.0088 6.1877 24.8293C6.30819 24.6469 6.53414 24.3448 6.68777 24.1563C6.84444 23.9678 7.18185 23.6029 7.43791 23.3486C7.69699 23.0944 8.10371 22.7205 8.3447 22.523C8.58572 22.3226 8.97734 22.0145 9.21836 21.835C9.45935 21.6555 9.87811 21.3594 10.1522 21.1799C10.4264 20.9974 10.8662 20.7192 11.1313 20.5607C11.3964 20.4052 11.7881 20.1778 12.005 20.0581C12.2189 19.9385 12.7431 19.6663 13.1648 19.4569C13.5866 19.2475 14.1981 18.9573 14.5205 18.8167C14.8428 18.6732 15.358 18.4548 15.6653 18.3292C15.9725 18.2065 16.4726 18.0151 16.7799 17.9044C17.0872 17.7937 17.5873 17.6202 17.8946 17.5215C18.2018 17.4228 18.6688 17.2792 18.9339 17.2014C19.199 17.1266 19.6449 17.004 19.9281 16.9322C20.2082 16.8574 20.7113 16.7407 21.0427 16.666C21.3741 16.5942 21.8742 16.4925 22.1574 16.4416C22.4375 16.3878 22.8985 16.316 23.1816 16.2741C23.4618 16.2352 23.9227 16.1813 24.2059 16.1544C24.4861 16.1275 24.935 16.0916 25.2001 16.0797C25.4652 16.0647 25.9924 16.0587 26.375 16.0677Z" fill="#222222"></path> </g> <defs> <clipPath id="SvgjsClipPath1000"> <rect width="32" height="32" fill="white"></rect> </clipPath> </defs> </svg> <style>@media (prefers-color-scheme: light) { :root { filter: none; } } @media (prefers-color-scheme: dark) { :root { filter: invert(100%); } } </style> </svg> 