<svg width="40" height="40" viewBox="0 0 40 40" fill="none" xmlns="http://www.w3.org/2000/svg">
<rect width="40" height="40" rx="8" fill="white"/>
<g clip-path="url(#clip0_90_81831)">
<mask id="mask0_90_81831" style="mask-type:luminance" maskUnits="userSpaceOnUse" x="5" y="5" width="30" height="30">
<path d="M35 5H5V35H35V5Z" fill="white"/>
</mask>
<g mask="url(#mask0_90_81831)">
<path fill-rule="evenodd" clip-rule="evenodd" d="M19.9612 5.35544C20.2315 5.35818 20.5073 5.36365 20.5762 5.36639C20.648 5.36913 20.4797 5.40199 20.1763 5.44855C19.8867 5.48963 19.4399 5.56358 19.1834 5.61013C18.9242 5.65943 18.4415 5.75802 18.1077 5.8347C17.774 5.91139 17.2279 6.05106 16.8942 6.14691C16.5605 6.24276 16.075 6.39065 15.8185 6.47555C15.5593 6.56319 15.1373 6.71381 14.8808 6.80967C14.6215 6.90826 14.194 7.08079 13.9292 7.19308C13.6645 7.30536 13.1239 7.55458 12.7295 7.74903C12.3351 7.94346 11.7752 8.23651 11.4883 8.40084C11.1987 8.56514 10.7712 8.81984 10.5368 8.96498C10.3024 9.11015 10.1065 9.22517 10.101 9.22244C10.0982 9.21696 10.2279 9.09644 10.3906 8.95405C10.5561 8.80889 10.7823 8.6172 10.8953 8.52682C11.0084 8.43368 11.2456 8.25567 11.4194 8.12697C11.5931 7.99824 11.8965 7.78737 12.0951 7.66139C12.2909 7.53267 12.5888 7.34918 12.7571 7.25607C12.9225 7.16021 13.2645 6.97946 13.5155 6.85622C13.7665 6.73298 14.1692 6.54949 14.4119 6.44816C14.6546 6.34957 15.0959 6.18525 15.391 6.0894C15.6862 5.99081 15.9482 5.90317 15.9702 5.89495C15.9923 5.88674 16.0226 5.87578 16.0392 5.87578C16.053 5.87304 16.1109 5.86209 16.1633 5.84839C16.2157 5.8347 16.2709 5.81827 16.2874 5.81005C16.3012 5.80184 16.3508 5.78815 16.3977 5.78541C16.4419 5.77993 16.4915 5.7635 16.508 5.7498C16.5218 5.73337 16.5439 5.72789 16.555 5.73611C16.5688 5.74433 16.5936 5.74159 16.6101 5.73063C16.6294 5.71968 16.6818 5.70872 16.7287 5.70325C16.7728 5.69777 16.8308 5.68681 16.8528 5.6786C16.8749 5.66764 16.9245 5.65669 16.9631 5.65121C17.0018 5.64573 17.0624 5.63478 17.101 5.62383C17.1397 5.61287 17.1893 5.60192 17.2114 5.59644C17.2334 5.5937 17.3024 5.58274 17.3631 5.57179C17.4238 5.56358 17.5837 5.53893 17.7216 5.51702C17.8568 5.49511 18.1381 5.4595 18.3422 5.43486C18.5463 5.41295 18.8828 5.38556 19.0869 5.37734C19.291 5.36639 19.462 5.35544 19.4647 5.3527C19.4703 5.34996 19.6937 5.3527 19.9612 5.35544ZM25.8028 7.90239C26.1504 7.91061 26.6303 7.93525 26.8647 7.95717C27.0992 7.97908 27.4715 8.02836 27.6921 8.06671C27.9128 8.10231 28.2383 8.17077 28.4148 8.2146C28.594 8.26115 28.8009 8.3269 28.8781 8.36522C28.9526 8.40357 29.1622 8.55418 29.3387 8.70207C29.518 8.85272 29.8131 9.11015 29.9952 9.27995C30.1772 9.447 30.4668 9.73455 30.6405 9.92079C30.8115 10.1043 31.046 10.3617 31.1563 10.4932C31.2694 10.6274 31.3549 10.7424 31.3466 10.7534C31.3383 10.767 31.1756 10.7095 30.9826 10.6274C30.7867 10.5452 30.5247 10.4439 30.3951 10.4001C30.2655 10.3562 30.042 10.2932 29.8986 10.2549C29.7552 10.2193 29.507 10.1645 29.347 10.1344C29.187 10.1043 28.834 10.0522 28.5609 10.0221C28.1969 9.9783 27.8328 9.95914 27.1957 9.94818C26.6634 9.93995 26.1228 9.94543 25.8028 9.96462C25.5132 9.98378 25.0416 10.0221 24.7548 10.0522C24.4652 10.0824 24.0184 10.1371 23.7619 10.1755C23.5026 10.2111 23.0806 10.2796 22.8241 10.3261C22.5648 10.3727 22.107 10.463 21.8036 10.5288C21.5002 10.5945 20.9982 10.7123 20.6866 10.7889C20.3749 10.8656 19.8481 11.008 19.5144 11.1039C19.1807 11.1997 18.6153 11.3723 18.2594 11.4873C17.9037 11.6051 17.3493 11.794 17.0321 11.9118C16.7122 12.0296 16.2295 12.213 15.9564 12.3226C15.6834 12.4321 15.1814 12.6458 14.8394 12.7964C14.4974 12.9443 13.9072 13.2209 13.5293 13.4044C13.1487 13.5906 12.5971 13.8754 12.302 14.037C12.0068 14.1959 11.5462 14.4588 11.2815 14.6149C11.0167 14.7737 10.5616 15.0585 10.2748 15.2475C9.98516 15.4392 9.52733 15.7596 9.25426 15.965C8.98121 16.1677 8.57026 16.4881 8.34409 16.6771C8.11517 16.866 7.70974 17.2358 7.43668 17.4987C7.16639 17.7616 6.82439 18.1203 6.67821 18.2929C6.53203 18.4654 6.33896 18.7064 6.24794 18.8269C6.15968 18.9474 6.01626 19.1583 5.928 19.2925C5.8425 19.4294 5.71839 19.6485 5.64944 19.7855C5.58049 19.9224 5.5005 20.1031 5.4674 20.188C5.43431 20.2757 5.39293 20.3469 5.37914 20.3469C5.3626 20.3469 5.35156 20.1908 5.35156 19.9279C5.35156 19.7006 5.36535 19.3254 5.37914 19.1008C5.39569 18.8735 5.42603 18.5175 5.45085 18.3066C5.47292 18.0957 5.52257 17.7451 5.56118 17.5261C5.59703 17.307 5.64668 17.0632 5.66874 16.9838C5.69357 16.8989 5.79562 16.7154 5.93076 16.5182C6.04936 16.343 6.25897 16.0636 6.39136 15.8966C6.52375 15.7295 6.81887 15.4063 7.04779 15.1735C7.27396 14.9408 7.63527 14.6039 7.8504 14.4204C8.06278 14.2396 8.41581 13.9521 8.63645 13.785C8.85436 13.618 9.24324 13.3332 9.50249 13.1551C9.75901 12.9744 10.1893 12.6951 10.4541 12.5307C10.7188 12.3637 11.1712 12.0953 11.4608 11.9337C11.7476 11.7694 12.2882 11.4846 12.6605 11.2983C13.0329 11.1121 13.5459 10.8629 13.8051 10.7479C14.0616 10.6329 14.5471 10.422 14.8808 10.2823C15.2145 10.1426 15.7551 9.92899 16.0805 9.8085C16.406 9.688 16.9328 9.50176 17.2527 9.39497C17.5699 9.29091 18.0664 9.13479 18.356 9.04988C18.6428 8.96498 19.1393 8.8308 19.4592 8.74865C19.7764 8.66648 20.2922 8.54598 20.6038 8.47751C20.9155 8.40904 21.4175 8.31046 21.7209 8.25567C22.0242 8.20364 22.4959 8.1297 22.7689 8.09135C23.042 8.05575 23.4695 8.00648 23.7205 7.98181C23.9715 7.95717 24.399 7.92704 24.672 7.91335C24.9451 7.90239 25.4526 7.89692 25.8028 7.90239ZM28.7954 15.5049C28.9085 15.5022 29.256 15.5131 29.5677 15.5268C29.8793 15.5433 30.3013 15.5734 30.5054 15.598C30.7095 15.6199 31.046 15.6692 31.2501 15.7076C31.4542 15.7459 31.7576 15.8117 31.9258 15.8555C32.0913 15.8993 32.3533 15.9787 32.505 16.0335C32.6567 16.0883 32.8994 16.1868 33.0429 16.2553C33.1863 16.3238 33.4097 16.4498 33.5393 16.5346C33.6689 16.6196 33.8841 16.7948 34.022 16.9263C34.1571 17.0577 34.3033 17.2111 34.3473 17.2686C34.4135 17.3617 34.4328 17.4357 34.4882 17.8273C34.5266 18.0765 34.5708 18.4216 34.5875 18.5941C34.6039 18.7667 34.6288 19.2733 34.6397 19.717C34.6508 20.1607 34.6508 20.555 34.6426 20.5933C34.6259 20.6536 34.6121 20.6372 34.5266 20.4564C34.4715 20.3441 34.364 20.1716 34.2895 20.073C34.2151 19.9744 34.0744 19.8211 33.9778 19.7334C33.8813 19.643 33.7075 19.5088 33.5945 19.4349C33.4814 19.3582 33.2635 19.235 33.1118 19.161C32.9601 19.0844 32.6733 18.9721 32.4774 18.9063C32.2789 18.8434 31.9755 18.7585 31.8017 18.7201C31.6279 18.6818 31.3218 18.627 31.126 18.5969C30.9274 18.5667 30.5992 18.5284 30.3951 18.5092C30.191 18.4901 29.6614 18.4764 29.2229 18.4764C28.7816 18.4764 28.2245 18.4928 27.9817 18.5092C27.739 18.5284 27.317 18.5667 27.044 18.5969C26.771 18.627 26.3434 18.6818 26.0924 18.7201C25.8414 18.7585 25.4498 18.8242 25.2236 18.868C24.9947 18.9091 24.5562 19.0022 24.2445 19.0707C23.9328 19.1391 23.3619 19.2816 22.9758 19.3856C22.5897 19.4897 21.9939 19.6622 21.6519 19.769C21.3099 19.8731 20.7638 20.0538 20.4383 20.1689C20.1129 20.2839 19.5778 20.4838 19.2524 20.6125C18.9269 20.7412 18.3918 20.9631 18.0664 21.1055C17.7409 21.2506 17.1673 21.519 16.7894 21.7053C16.4143 21.8915 15.9261 22.1462 15.7 22.2667C15.4765 22.3899 15.1456 22.5762 14.9635 22.6829C14.7815 22.7898 14.4285 23.0061 14.1775 23.165C13.9265 23.3211 13.5541 23.5675 13.3501 23.7099C13.1459 23.8551 12.8784 24.0468 12.7571 24.1372C12.6357 24.2276 12.393 24.422 12.2165 24.5644C12.04 24.7068 11.72 24.9834 11.5021 25.1806C11.2842 25.3751 10.9643 25.69 10.7905 25.879C10.6168 26.0679 10.3878 26.3308 10.2803 26.4678C10.1755 26.6047 10.0045 26.8375 9.90518 26.9881C9.80313 27.1388 9.65144 27.3989 9.56595 27.5632C9.48043 27.7276 9.37288 27.9741 9.32598 28.111C9.28186 28.2479 9.22394 28.4424 9.20188 28.5492C9.17979 28.6532 9.15222 28.8258 9.14396 28.9326C9.13291 29.0449 9.13842 29.2284 9.15773 29.3708C9.17428 29.5077 9.2184 29.7022 9.2515 29.809C9.28461 29.913 9.30942 30.0171 9.30392 30.0335C9.29841 30.0609 9.28736 30.0609 9.25426 30.0335C9.22944 30.0171 9.21014 29.9925 9.21289 29.9787C9.21289 29.9678 9.06673 29.7898 8.89019 29.5817C8.71367 29.3763 8.45718 29.0586 8.31928 28.8778C8.18413 28.6971 7.93865 28.3465 7.77317 28.0973C7.60769 27.8481 7.43944 27.577 7.39807 27.4948C7.32636 27.3524 7.3236 27.325 7.3236 26.947C7.32636 26.6705 7.34015 26.4787 7.37601 26.3172C7.40359 26.1884 7.46426 25.9803 7.50839 25.8516C7.55528 25.7229 7.67388 25.4572 7.77317 25.2628C7.87522 25.0656 8.05449 24.7589 8.17862 24.5781C8.29997 24.3974 8.50405 24.1208 8.63369 23.9619C8.76058 23.8031 9.04189 23.4963 9.25426 23.28C9.46663 23.0636 9.80038 22.7432 9.99896 22.5679C10.1948 22.3926 10.4871 22.1434 10.6471 22.0147C10.8071 21.886 11.1408 21.6286 11.3918 21.4423C11.6428 21.2589 12.0565 20.9686 12.3158 20.7987C12.5722 20.629 13.0025 20.3606 13.2673 20.2045C13.5321 20.0456 13.9541 19.8019 14.2051 19.665C14.456 19.5253 15.0683 19.2103 15.5703 18.9639C16.0695 18.7174 16.6984 18.4216 16.9631 18.3066C17.2279 18.1888 17.6692 18.0053 17.9423 17.8958C18.2153 17.7835 18.6373 17.6219 18.88 17.5315C19.1227 17.4412 19.564 17.2851 19.8591 17.1837C20.1542 17.0851 20.6563 16.9235 20.9762 16.8277C21.2934 16.7318 21.8146 16.584 22.1346 16.4991C22.4518 16.4142 22.9234 16.2964 23.1827 16.2361C23.4392 16.1759 23.8253 16.0883 24.0377 16.0444C24.25 16.0006 24.7079 15.913 25.0582 15.8555C25.4057 15.7952 25.9463 15.7158 26.2579 15.6802C26.5696 15.6419 26.9916 15.598 27.1957 15.5789C27.3998 15.5624 27.797 15.5405 28.0783 15.5296C28.3596 15.5159 28.6823 15.5049 28.7954 15.5049ZM27.5046 28.5382C27.7004 28.5382 27.979 28.5492 28.1252 28.5629C28.2741 28.5793 28.5251 28.6231 28.6851 28.6614C28.8533 28.6998 29.0795 28.7792 29.2229 28.8477C29.3663 28.9162 29.5346 29.0257 29.6228 29.1024C29.7056 29.1791 29.8104 29.305 29.8573 29.3872C29.9262 29.5132 29.94 29.5734 29.9483 29.7816C29.9565 29.9623 29.9483 30.0719 29.9124 30.1924C29.8876 30.2828 29.8242 30.4361 29.7745 30.5347C29.7249 30.6333 29.62 30.7976 29.5456 30.9044C29.4711 31.0112 29.3139 31.2002 29.1981 31.3289C29.0822 31.4576 28.9857 31.5864 28.9802 31.6165C28.9774 31.6466 28.8836 31.7397 28.7678 31.8301C28.6547 31.9177 28.3486 32.1286 28.0921 32.3011C27.8328 32.4709 27.4853 32.69 27.3198 32.7831C27.1515 32.879 26.8289 33.0433 26.6027 33.1529C26.3738 33.2597 26.0456 33.4103 25.8718 33.487C25.698 33.5609 25.334 33.7033 25.0637 33.8047C24.7961 33.9033 24.3934 34.0402 24.1673 34.1059C23.9439 34.1717 23.544 34.2757 23.2792 34.3358C23.0144 34.3962 22.609 34.4782 22.3828 34.5166C22.1539 34.5523 21.856 34.5989 21.7209 34.6153C21.583 34.6317 21.3734 34.6455 21.252 34.6481C21.1306 34.6508 20.8383 34.6317 20.6038 34.6071C20.3694 34.5825 20.0881 34.5468 19.9833 34.5304C19.8757 34.514 19.7102 34.4756 19.6109 34.4454C19.5116 34.4152 19.3186 34.3332 19.1834 34.2648C19.029 34.1853 18.8828 34.084 18.7973 33.9991C18.72 33.9252 18.6263 33.7992 18.5904 33.7252C18.5435 33.6266 18.5215 33.5281 18.5132 33.3692C18.5049 33.2213 18.516 33.0926 18.549 32.9721C18.5739 32.8735 18.6428 32.701 18.7035 32.5887C18.7614 32.4764 18.8745 32.2984 18.9545 32.1916C19.0317 32.0848 19.2413 31.8575 19.4151 31.6849C19.5916 31.5124 19.8591 31.2769 20.0108 31.1618C20.1625 31.0468 20.4356 30.8551 20.6176 30.7346C20.7997 30.6141 21.0838 30.4361 21.252 30.343C21.4175 30.2471 21.7788 30.0609 22.0518 29.9295C22.3249 29.798 22.7414 29.6145 22.9758 29.5214C23.2102 29.4283 23.6212 29.2776 23.886 29.19C24.1508 29.1024 24.5617 28.9819 24.7961 28.9216C25.0306 28.8614 25.3836 28.782 25.5822 28.7436C25.778 28.708 26.0842 28.656 26.2579 28.6313C26.4317 28.6067 26.7047 28.5793 26.8647 28.5656C27.0247 28.5519 27.3115 28.5409 27.5046 28.5382ZM28.9195 24.5233C29.5125 24.5288 29.8628 24.5453 30.0641 24.5754C30.2241 24.6 30.453 24.6384 30.5744 24.663C30.6957 24.6876 30.9301 24.7507 31.0984 24.8027C31.2639 24.8575 31.4818 24.9369 31.5811 24.9807C31.6803 25.0245 31.8596 25.1258 31.981 25.2053C32.1023 25.2874 32.2761 25.4298 32.3671 25.5284C32.4637 25.6325 32.574 25.7913 32.6347 25.9091C32.6898 26.0214 32.7477 26.1775 32.7643 26.2542C32.7808 26.3336 32.7946 26.5143 32.7946 26.6513C32.7946 26.791 32.7753 26.9799 32.756 27.0703C32.7339 27.1607 32.7091 27.2921 32.7008 27.3633C32.6926 27.4373 32.6677 27.5277 32.6457 27.5687C32.6264 27.6126 32.5519 27.7139 32.4857 27.796C32.4168 27.8782 32.2595 28.1 32.1327 28.289C32.0058 28.478 31.8017 28.7601 31.6803 28.9189C31.5618 29.0777 31.3466 29.3434 31.206 29.5077C31.0653 29.672 30.8777 29.8884 30.7895 29.9842C30.7012 30.0801 30.613 30.154 30.5937 30.1486C30.5716 30.1404 30.5937 30.0883 30.6626 29.987C30.7178 29.9048 30.8115 29.7378 30.8695 29.6173C30.9274 29.4968 30.9991 29.2996 31.0294 29.1791C31.0598 29.0586 31.0846 28.9025 31.0846 28.8285C31.0846 28.7573 31.0708 28.6341 31.0543 28.5547C31.0377 28.478 30.9936 28.3575 30.9605 28.289C30.9246 28.2205 30.8584 28.1165 30.8088 28.0562C30.7619 27.996 30.6571 27.8946 30.5799 27.8289C30.4999 27.7659 30.3427 27.6646 30.2296 27.6071C30.1165 27.5496 29.9234 27.4701 29.8021 27.4318C29.6807 27.3934 29.4435 27.3359 29.2781 27.3058C29.1098 27.2757 28.8368 27.2374 28.6713 27.2209C28.503 27.2072 28.2189 27.1935 28.0369 27.1935C27.8549 27.1935 27.4936 27.2127 27.2371 27.2346C26.9778 27.2565 26.5944 27.3003 26.382 27.3305C26.1697 27.3633 25.8084 27.4236 25.5822 27.4701C25.3533 27.5139 25.0196 27.5906 24.8375 27.6345C24.6555 27.681 24.308 27.7769 24.0652 27.8508C23.8225 27.9248 23.4695 28.037 23.2792 28.1055C23.0889 28.1712 22.7551 28.2972 22.5345 28.3849C22.3138 28.4725 21.9056 28.6478 21.6243 28.7737C21.343 28.8997 20.9155 29.1079 20.6728 29.2393C20.4301 29.368 20.0771 29.5679 19.8867 29.6857C19.6964 29.8035 19.3985 30.0007 19.2248 30.1239C19.051 30.2471 18.778 30.4553 18.618 30.584C18.458 30.7127 18.174 30.9729 17.9836 31.1646C17.7933 31.3536 17.5561 31.6247 17.4541 31.7671C17.352 31.9095 17.2196 32.1259 17.159 32.2464C17.0983 32.3669 17.0238 32.5641 16.9907 32.6845C16.9604 32.805 16.9356 32.9831 16.9356 33.0817C16.9356 33.1803 16.9576 33.3391 16.988 33.4377C17.0183 33.5363 17.0845 33.676 17.1342 33.7499C17.1838 33.8238 17.2996 33.9525 17.3906 34.032C17.4872 34.1169 17.6609 34.2292 17.8044 34.3004C17.9395 34.366 18.1712 34.4536 18.3146 34.4949C18.458 34.533 18.607 34.5796 18.6456 34.5934C18.6842 34.6098 18.7007 34.6291 18.6869 34.6344C18.6704 34.6399 18.4856 34.6262 18.2732 34.6016C18.0609 34.577 17.774 34.533 17.6389 34.5031C17.501 34.4729 17.3658 34.4428 17.3355 34.4372C17.3052 34.4319 17.1507 34.3962 16.9907 34.3578C16.8308 34.3194 16.657 34.2839 16.6046 34.2757C16.5522 34.2675 16.4639 34.2538 16.4115 34.2456C16.3591 34.2346 16.1854 34.1963 16.0254 34.1607C15.8654 34.1224 15.6144 34.0566 15.4655 34.0128C15.2311 33.9416 15.1759 33.9115 15.0242 33.78C14.9304 33.6951 14.7677 33.55 14.6629 33.4568C14.5581 33.3637 14.4229 33.2131 14.365 33.1227C14.3071 33.0324 14.2299 32.879 14.1968 32.7804C14.1471 32.6353 14.1361 32.5421 14.1361 32.2737C14.1389 32.0437 14.1526 31.8876 14.1885 31.7534C14.2161 31.6466 14.285 31.4576 14.3402 31.3289C14.3954 31.2002 14.5029 30.9975 14.5774 30.8771C14.6519 30.7566 14.8063 30.5347 14.9221 30.3841C15.0352 30.2335 15.2724 29.9651 15.4462 29.7843C15.6199 29.6063 15.8985 29.3434 16.0668 29.201C16.2322 29.0558 16.5384 28.8148 16.7425 28.6614C16.9466 28.5081 17.2141 28.3137 17.3355 28.2315C17.4569 28.1466 17.6996 27.9877 17.8733 27.8782C18.0471 27.7687 18.3946 27.5632 18.6456 27.4208C18.8966 27.2784 19.3737 27.0292 19.7074 26.8649C20.0412 26.7033 20.4742 26.4979 20.6728 26.413C20.8686 26.3281 21.2796 26.1583 21.583 26.0378C21.8863 25.9173 22.4435 25.7174 22.8241 25.5914C23.2019 25.4654 23.7674 25.2929 24.079 25.208C24.3907 25.1258 24.8927 25.0026 25.1961 24.9341C25.4995 24.8684 25.9711 24.778 26.2441 24.7315C26.5172 24.6876 26.9089 24.6301 27.1129 24.6055C27.317 24.5836 27.6149 24.5507 27.7749 24.5398C27.9349 24.5261 28.4478 24.5179 28.9195 24.5233ZM23.4447 5.76897C23.5274 5.77445 23.6157 5.78267 23.6377 5.78815C23.6598 5.79088 23.6901 5.7991 23.7067 5.81005C23.7205 5.81827 23.7784 5.8347 23.8308 5.84839C23.8832 5.86209 23.9384 5.87304 23.9549 5.87578C23.9687 5.87578 24.0156 5.89221 24.057 5.90865C24.1011 5.92782 24.1452 5.93603 24.1618 5.92782C24.1756 5.9196 24.1949 5.92508 24.2031 5.94151C24.2114 5.9552 24.2831 5.98259 24.3604 6.00176C24.4404 6.01819 24.5065 6.02641 24.5093 6.02093C24.5093 6.01545 24.5341 6.02915 24.5589 6.05106C24.5838 6.07297 24.6031 6.07844 24.6031 6.06475C24.6031 6.04832 24.6196 6.05653 24.6444 6.07844C24.6693 6.10035 24.6858 6.10583 24.6858 6.09214C24.6831 6.07571 24.6968 6.07844 24.7189 6.09487C24.7382 6.11131 24.8237 6.14965 24.9065 6.17704C24.9892 6.20442 25.0637 6.22907 25.0719 6.22907C25.0802 6.23181 25.1216 6.24824 25.1685 6.26741C25.2126 6.28658 25.2622 6.30575 25.2788 6.30849C25.2926 6.31123 25.3367 6.3304 25.3753 6.35231C25.4139 6.37148 25.4471 6.38791 25.4498 6.38517C25.4553 6.38244 25.516 6.40708 25.5877 6.43995C25.6622 6.47281 25.7367 6.5002 25.7532 6.5002C25.7725 6.50294 25.7891 6.50841 25.7891 6.51663C25.7891 6.52484 25.8359 6.54676 25.8911 6.56866C25.949 6.59057 26.0014 6.60427 26.0097 6.60153C26.018 6.59605 26.029 6.60427 26.0373 6.61796C26.0456 6.62892 26.28 6.75489 26.5613 6.89183C26.8426 7.0315 27.0964 7.16569 27.1267 7.19034C27.1791 7.23142 27.1764 7.23142 27.0716 7.21773C27.0109 7.20951 26.7489 7.17117 26.4924 7.13283C26.2331 7.09723 25.8194 7.05341 25.5684 7.03424C25.2816 7.01507 24.8375 7.00685 24.3686 7.01781C23.9577 7.02602 23.4116 7.05341 23.1551 7.07805C22.8958 7.09997 22.4876 7.14378 22.2449 7.17665C22.0022 7.20677 21.5499 7.27524 21.2382 7.32727C20.9265 7.37931 20.3942 7.48338 20.0522 7.55732C19.7102 7.634 19.1779 7.75998 18.8662 7.84214C18.5546 7.9243 18.0333 8.07219 17.7078 8.17077C17.3824 8.26939 16.897 8.42273 16.6322 8.51038C16.3674 8.60076 15.9261 8.75686 15.653 8.85819C15.38 8.96226 14.9387 9.13206 14.6739 9.2416C14.4092 9.35114 13.9927 9.52915 13.75 9.63869C13.5073 9.74826 12.9805 10.0002 12.5778 10.2029C12.1751 10.4028 11.6097 10.7013 11.3229 10.8656C11.0333 11.0272 10.5947 11.2901 10.3437 11.4435C10.0927 11.5996 9.69556 11.8598 9.46112 12.0241C9.22669 12.1884 8.89572 12.4267 8.73022 12.5554C8.56197 12.6841 8.25307 12.9361 8.04069 13.1141C7.82833 13.2948 7.45047 13.6481 7.19949 13.9028C6.9485 14.1548 6.64511 14.4834 6.52927 14.6285C6.41343 14.7764 6.3031 14.8969 6.28931 14.8969C6.27277 14.8969 6.29483 14.8148 6.33344 14.7107C6.37206 14.6094 6.47962 14.3547 6.57064 14.1438C6.66166 13.9329 6.84921 13.5386 6.98987 13.2674C7.13053 12.9963 7.33188 12.6321 7.43944 12.4595C7.54425 12.287 7.7318 11.9967 7.85316 11.8159C7.97727 11.6352 8.14276 11.4243 8.22274 11.3476C8.30548 11.2709 8.52061 11.0847 8.70266 10.9368C8.88468 10.7862 9.19634 10.5479 9.39219 10.4028C9.59076 10.2576 9.9686 9.99746 10.2334 9.82493C10.4982 9.64965 10.8953 9.40317 11.116 9.2772C11.3366 9.1485 11.7393 8.92666 12.0124 8.78425C12.2854 8.64184 12.7433 8.41452 13.0329 8.27759C13.3197 8.14066 13.7003 7.96813 13.8741 7.89144C14.0478 7.81476 14.4588 7.6477 14.7842 7.51898C15.1097 7.393 15.6751 7.1876 16.0392 7.06436C16.4033 6.94386 16.9797 6.76311 17.3217 6.66726C17.6637 6.56866 18.1519 6.43995 18.4111 6.3797C18.6676 6.31671 19.1531 6.21264 19.4868 6.14691C19.8205 6.08118 20.3115 5.99628 20.5762 5.95794C20.841 5.9196 21.2768 5.87031 21.5416 5.84566C21.8064 5.81827 22.3083 5.78815 22.6586 5.77719C23.0061 5.76624 23.3619 5.76076 23.4447 5.76897ZM27.4853 11.2326C27.7887 11.2299 28.241 11.2408 28.492 11.2545C28.743 11.2709 29.1071 11.3011 29.3056 11.3257C29.5014 11.3476 29.849 11.4024 30.0779 11.449C30.3041 11.4928 30.6268 11.5667 30.795 11.6133C30.9605 11.6598 31.217 11.7392 31.3604 11.794C31.5038 11.8488 31.7466 11.9529 31.8982 12.0296C32.0499 12.1035 32.2347 12.2048 32.312 12.2514C32.3864 12.3007 32.4857 12.3746 32.5271 12.4212C32.5685 12.465 32.676 12.6293 32.7643 12.7882C32.8525 12.947 33.0125 13.2483 33.1201 13.4592C33.2249 13.67 33.3821 14.0096 33.4704 14.2123C33.5586 14.4149 33.702 14.7819 33.7903 15.0257C33.8813 15.2721 33.953 15.4912 33.953 15.5131C33.953 15.5378 33.851 15.4666 33.7103 15.3461C33.5779 15.2311 33.3766 15.0777 33.2635 15.0037C33.1504 14.9271 32.9325 14.8066 32.7808 14.7326C32.6291 14.6587 32.3561 14.5491 32.1741 14.4862C31.992 14.4232 31.6997 14.3383 31.5259 14.2944C31.3521 14.2506 31.0653 14.1904 30.8915 14.1602C30.7178 14.1274 30.4199 14.0863 30.2296 14.0616C30.0393 14.0397 29.6725 14.0096 29.416 13.9932C29.1567 13.9795 28.743 13.9658 28.492 13.9658C28.241 13.9658 27.808 13.9795 27.5267 13.9932C27.2453 14.0096 26.8233 14.0397 26.5889 14.0616C26.3545 14.0863 25.9628 14.1274 25.7201 14.1602C25.4774 14.1904 25.0554 14.2506 24.7823 14.2972C24.5093 14.3437 24.0129 14.4341 23.6791 14.5026C23.3454 14.571 22.7993 14.6916 22.4655 14.7737C22.1318 14.8531 21.6712 14.9709 21.445 15.0339C21.2161 15.0941 20.7693 15.2256 20.4521 15.3214C20.1322 15.4173 19.6495 15.5734 19.3765 15.6638C19.1034 15.7569 18.6125 15.9322 18.287 16.0527C17.9616 16.1732 17.432 16.3813 17.1148 16.5128C16.7949 16.6442 16.3233 16.8469 16.0668 16.9646C15.8075 17.0797 15.2862 17.3261 14.9084 17.5124C14.5278 17.6986 13.9761 17.9834 13.681 18.1423C13.3859 18.3038 12.9556 18.5476 12.7295 18.6845C12.5006 18.8187 12.142 19.0405 11.9296 19.1775C11.7172 19.3144 11.3752 19.5417 11.1712 19.6841C10.967 19.8265 10.6443 20.0621 10.4541 20.2072C10.2637 20.3524 9.92999 20.618 9.70936 20.8015C9.48872 20.9822 9.16602 21.2671 8.99226 21.4287C8.8185 21.593 8.53991 21.8696 8.37444 22.0421C8.20895 22.2174 7.969 22.4885 7.84212 22.6474C7.71249 22.8062 7.50564 23.0883 7.37876 23.2772C7.25189 23.4662 7.0864 23.7373 7.01194 23.8798C6.93471 24.0222 6.82714 24.2632 6.77198 24.4138C6.71682 24.5644 6.64787 24.7917 6.62029 24.9204C6.59271 25.0492 6.55961 25.2737 6.54582 25.4216C6.53478 25.5668 6.51272 25.6845 6.50169 25.6818C6.4879 25.6763 6.43549 25.5695 6.38309 25.4408C6.33069 25.3121 6.20657 24.9725 6.11004 24.6876C6.0135 24.4001 5.87284 23.9208 5.79838 23.6196C5.72391 23.3183 5.63289 22.9048 5.53084 22.3269L5.65495 21.96C5.72115 21.7573 5.85354 21.4396 5.94731 21.2506C6.04109 21.0617 6.2176 20.7604 6.3362 20.5797C6.45756 20.3989 6.63408 20.1524 6.73061 20.0319C6.82714 19.9114 7.02573 19.6759 7.17191 19.5116C7.32084 19.3445 7.61872 19.0378 7.83661 18.8296C8.05449 18.6188 8.42683 18.2874 8.66129 18.0929C8.89572 17.8985 9.28186 17.5945 9.51629 17.4192C9.75072 17.244 10.2417 16.9044 10.6057 16.6634C10.9698 16.4196 11.4773 16.0992 11.7366 15.9458C11.993 15.7925 12.4095 15.557 12.6605 15.4173C12.9115 15.2804 13.4631 14.9955 13.8879 14.7874C14.3126 14.5793 14.9387 14.2862 15.2807 14.1356C15.6227 13.985 16.2295 13.733 16.6322 13.5742C17.0349 13.4153 17.6416 13.188 17.9836 13.0675C18.3257 12.947 18.8635 12.769 19.1834 12.6704C19.5006 12.5691 19.986 12.4267 20.2591 12.35C20.5321 12.2733 21.0286 12.1446 21.3623 12.0624C21.696 11.983 22.1732 11.8707 22.4242 11.8187C22.6752 11.7666 23.0889 11.6845 23.3481 11.6379C23.6046 11.5914 24.0597 11.5174 24.3548 11.4736C24.65 11.4298 25.1602 11.3696 25.4857 11.3367C25.8111 11.3066 26.2717 11.2709 26.5062 11.2573C26.7406 11.2463 27.1819 11.2326 27.4853 11.2326ZM25.1547 30.9126C25.0113 30.9428 24.7548 31.0058 24.5893 31.0551C24.421 31.1043 24.1425 31.1975 23.9687 31.2659C23.7949 31.3344 23.4723 31.4795 23.2516 31.5918C23.031 31.7014 22.7331 31.8684 22.5897 31.9643C22.4462 32.0601 22.2201 32.2409 22.0849 32.3696C21.9498 32.4983 21.7843 32.6818 21.7209 32.7804C21.6547 32.879 21.5802 33.0132 21.5554 33.0817C21.5333 33.1501 21.514 33.2515 21.514 33.3062C21.514 33.3637 21.5306 33.4514 21.5526 33.4979C21.5719 33.5472 21.6326 33.6266 21.6823 33.676C21.7346 33.7252 21.845 33.7937 21.9277 33.832C22.027 33.8786 22.2035 33.9197 22.438 33.9553C22.7303 33.9964 22.8489 34.0019 23.0723 33.9827C23.224 33.969 23.4667 33.9389 23.6102 33.917C23.7536 33.8923 24.0156 33.8375 24.1894 33.7937C24.3631 33.7499 24.65 33.665 24.8237 33.6047C24.9975 33.5472 25.2595 33.4459 25.4029 33.3829C25.5463 33.3199 25.7835 33.2076 25.927 33.1309C26.0704 33.0543 26.3076 32.9146 26.451 32.8215C26.5944 32.7284 26.8123 32.5586 26.9309 32.449C27.0495 32.3367 27.2012 32.1779 27.2646 32.0957C27.3281 32.0136 27.4136 31.8821 27.4522 31.8082C27.4908 31.7315 27.5294 31.622 27.5405 31.5617C27.5542 31.4932 27.546 31.4083 27.5239 31.3316C27.5018 31.2659 27.4411 31.1673 27.3888 31.1153C27.3364 31.0605 27.2288 30.9893 27.1543 30.9565C27.0771 30.9208 26.9419 30.8743 26.8509 30.8497C26.7544 30.8223 26.5393 30.8004 26.3269 30.7949C26.1145 30.7867 25.8552 30.7976 25.6925 30.8223C25.5408 30.8414 25.2981 30.8825 25.1547 30.9126ZM25.4443 31.8246C25.4581 31.8246 25.5491 31.8356 25.6429 31.8493C25.7394 31.8657 25.8663 31.9013 25.927 31.9314C25.9876 31.9616 26.0511 32.0136 26.0676 32.0464C26.0842 32.0821 26.0924 32.1532 26.0842 32.2053C26.0731 32.2573 26.018 32.3696 25.9545 32.4518C25.8939 32.5339 25.7587 32.6654 25.6567 32.7393C25.5546 32.816 25.3588 32.9338 25.2236 33.005C25.0857 33.0734 24.8817 33.1638 24.7686 33.2022C24.6555 33.2405 24.4734 33.2898 24.3686 33.3117C24.2611 33.3336 24.0763 33.3637 23.9549 33.3802C23.7839 33.3993 23.6929 33.3966 23.5467 33.3665C23.4447 33.3446 23.3233 33.309 23.2792 33.2871C23.2323 33.2652 23.1827 33.2213 23.1689 33.1912C23.1523 33.1611 23.1413 33.0981 23.1413 33.0543C23.1413 33.0077 23.1606 32.9338 23.1827 32.8899C23.2047 32.8434 23.2709 32.7558 23.3261 32.6928C23.384 32.6325 23.4916 32.5339 23.5688 32.4791C23.6432 32.4244 23.7867 32.3313 23.886 32.2765C23.9853 32.219 24.1645 32.1313 24.2859 32.0793C24.4072 32.03 24.6169 31.9643 24.7548 31.9314C24.8899 31.8986 25.0968 31.8629 25.2099 31.852C25.3229 31.8383 25.4277 31.8274 25.4443 31.8246Z" fill="#101828"/>
<path d="M29.4987 20.062C29.8462 20.0675 30.2682 20.0867 30.4365 20.1004C30.6019 20.1168 30.875 20.147 31.0432 20.1716C31.2087 20.1935 31.49 20.2455 31.6638 20.2839C31.8376 20.3222 32.1299 20.4017 32.312 20.4619C32.494 20.5194 32.7533 20.6207 32.8912 20.6837C33.0263 20.7495 33.2442 20.87 33.3738 20.9549C33.5035 21.037 33.6689 21.1603 33.7434 21.226C33.8179 21.2917 33.9392 21.4259 34.0164 21.5245C34.0909 21.6231 34.1985 21.8011 34.2564 21.9216C34.3171 22.0421 34.3859 22.2146 34.4108 22.305C34.4577 22.4666 34.4577 22.4748 34.3804 22.8664C34.3391 23.0855 34.2674 23.4114 34.2233 23.5922C34.1764 23.7729 34.0137 24.3426 34.0082 24.3645C33.9916 24.4384 33.7131 25.2327 33.7131 25.2491C33.6965 25.2874 33.6083 25.5092 33.5834 25.564C33.5586 25.5859 33.5448 25.5312 33.531 25.3312C33.52 25.1888 33.4924 24.9971 33.4704 24.9068C33.4483 24.8164 33.3849 24.6548 33.3352 24.5507C33.2773 24.433 33.1697 24.2796 33.0484 24.1536C32.9436 24.0413 32.7671 23.8852 32.654 23.8086C32.5409 23.7291 32.3506 23.6168 32.2292 23.5566C32.1078 23.4963 31.9038 23.4114 31.7741 23.3649C31.6445 23.3211 31.4018 23.2526 31.2363 23.2115C31.068 23.1732 30.7702 23.1157 30.5744 23.0855C30.3758 23.0554 29.9676 23.0171 29.6642 22.9979C29.2339 22.9733 28.9692 22.9733 28.4644 22.9979C28.1086 23.0171 27.6425 23.0499 27.4301 23.0718C27.2178 23.0937 26.8261 23.1431 26.5613 23.1814C26.2965 23.2225 25.8359 23.3019 25.5408 23.3594C25.2457 23.4169 24.7741 23.521 24.4927 23.5922C24.2114 23.6607 23.7536 23.7839 23.4723 23.8661C23.1909 23.9482 22.6697 24.1125 22.3139 24.233C21.9581 24.3508 21.4478 24.5316 21.183 24.6329C20.9183 24.7342 20.4825 24.9095 20.2177 25.0218C19.9529 25.1341 19.3875 25.3942 18.9628 25.6051C18.538 25.8133 17.9919 26.0981 17.7492 26.2377C17.5065 26.3747 17.1093 26.6129 16.8666 26.7663C16.6239 26.9197 16.2571 27.1634 16.053 27.3058C15.8489 27.451 15.5538 27.6701 15.3966 27.7906C15.2421 27.9138 14.9691 28.1439 14.7898 28.2999C14.6132 28.4561 14.3374 28.7162 14.1775 28.8833C14.0175 29.0476 13.8024 29.2859 13.7003 29.4119C13.5955 29.5406 13.4355 29.7542 13.3445 29.8911C13.2535 30.0253 13.1211 30.2471 13.0522 30.3841C12.986 30.5183 12.8977 30.7154 12.8618 30.8223C12.826 30.9263 12.7791 31.0961 12.7571 31.1975C12.735 31.3015 12.7157 31.5042 12.7157 31.6493C12.7157 31.8 12.735 31.9889 12.7598 32.0821C12.7819 32.1724 12.8453 32.3313 12.8977 32.4381C12.9501 32.5421 13.0908 32.7475 13.2122 32.8899C13.3307 33.0324 13.4273 33.1529 13.4245 33.1583C13.4217 33.1611 13.2508 33.0707 13.0467 32.9557C12.8425 32.8407 12.5805 32.69 12.4675 32.6216C12.3544 32.5531 12.2468 32.4764 12.2275 32.4518C12.2082 32.4299 12.1917 32.4189 12.1917 32.4299C12.1917 32.4436 12.1641 32.4271 12.1282 32.397C12.0951 32.3669 11.7807 32.1396 11.4332 31.8931C11.0829 31.6439 10.7574 31.4001 10.7078 31.3508C10.6581 31.3015 10.5671 31.1619 10.5092 31.0413C10.4513 30.9208 10.3823 30.7483 10.3575 30.6579C10.3354 30.5676 10.3079 30.3704 10.2996 30.2197C10.2858 30.0226 10.2941 29.872 10.3272 29.6857C10.352 29.5433 10.4127 29.3133 10.4568 29.1791C10.5037 29.0421 10.603 28.8093 10.6774 28.6587C10.7547 28.5081 10.9064 28.2479 11.0167 28.0836C11.127 27.9165 11.3339 27.64 11.4745 27.4674C11.618 27.2949 11.9269 26.9608 12.1613 26.728C12.3985 26.4952 12.7709 26.1528 12.9915 25.9721C13.2122 25.7886 13.5707 25.5065 13.7914 25.3422C14.012 25.1779 14.3954 24.9068 14.6464 24.7424C14.8973 24.5754 15.3 24.3207 15.5427 24.1755C15.7854 24.0331 16.144 23.825 16.3426 23.7154C16.5384 23.6059 17.0183 23.3567 17.4044 23.165C17.7906 22.9733 18.3505 22.7076 18.6456 22.5789C18.9407 22.4474 19.4123 22.2475 19.6937 22.1325C19.975 22.0202 20.4328 21.8449 20.7142 21.7436C20.9955 21.6423 21.4533 21.4834 21.7346 21.393C22.016 21.3027 22.4435 21.1712 22.6862 21.1C22.9289 21.0315 23.3371 20.9192 23.5964 20.8535C23.8529 20.7851 24.3135 20.6783 24.6169 20.6098C24.9203 20.5441 25.3781 20.4509 25.6374 20.4044C25.8939 20.3551 26.3159 20.2894 26.5751 20.251C26.8316 20.2154 27.2536 20.1661 27.5129 20.1415C27.7694 20.1168 28.1803 20.084 28.423 20.073C28.6658 20.0593 29.1484 20.0538 29.4987 20.062Z" fill="#101828"/>
</g>
</g>
<defs>
<clipPath id="clip0_90_81831">
<rect width="30" height="30" fill="white" transform="translate(5 5)"/>
</clipPath>
</defs>
</svg>
